<?xml version="1.0" encoding="iso-8859-1"?>
<!-- Uploaded to: SVG Repo, www.svgrepo.com, Generator: SVG Repo Mixer Tools -->
<svg fill="#9ca3af" version="1.1" id="Layer_1" xmlns="http://www.w3.org/2000/svg" xmlns:xlink="http://www.w3.org/1999/xlink" 
	 viewBox="0 0 218.167 218.167" xml:space="preserve">
<g>
	<g>
		<g>
			<path d="M196.35,0h-31.733c-2.192,0-3.967,1.776-3.967,3.967v3.967H57.517V3.967C57.517,1.776,55.742,0,53.55,0H21.817
				c-2.192,0-3.967,1.776-3.967,3.967V214.2c0,2.19,1.774,3.967,3.967,3.967H53.55c2.192,0,3.967-1.776,3.967-3.967v-7.933H160.65
				v7.933c0,2.19,1.774,3.967,3.967,3.967h31.733c2.192,0,3.967-1.776,3.967-3.967V3.967C200.317,1.776,198.542,0,196.35,0z
				 M49.583,11.9v95.2v95.2v7.933h-23.8V7.933h23.8V11.9z M160.65,198.333H57.517v-87.267H160.65V198.333z M160.65,103.134H57.517
				V15.867H160.65V103.134z M192.383,210.233h-23.8V202.3v-95.2V11.9V7.933h23.8V210.233z"/>
			<rect x="176.517" y="15.867" width="7.933" height="19.833"/>
			<rect x="33.717" y="15.867" width="7.933" height="19.833"/>
			<rect x="176.517" y="43.633" width="7.933" height="19.833"/>
			<rect x="33.717" y="43.633" width="7.933" height="19.833"/>
			<rect x="176.517" y="71.4" width="7.933" height="19.833"/>
			<rect x="33.717" y="71.4" width="7.933" height="19.833"/>
			<rect x="176.517" y="99.167" width="7.933" height="19.833"/>
			<rect x="33.717" y="99.167" width="7.933" height="19.833"/>
			<rect x="176.517" y="126.933" width="7.933" height="19.833"/>
			<rect x="33.717" y="126.933" width="7.933" height="19.833"/>
			<rect x="176.517" y="154.7" width="7.933" height="19.833"/>
			<rect x="33.717" y="154.7" width="7.933" height="19.833"/>
			<rect x="176.517" y="182.467" width="7.933" height="19.833"/>
			<rect x="33.717" y="182.467" width="7.933" height="19.833"/>
		</g>
	</g>
</g>
</svg>